<svg width="270" height="231" viewBox="0 0 270 231" fill="none" xmlns="http://www.w3.org/2000/svg">
<path d="M249.24 191.202C241.089 200.586 231.248 205.138 219.163 205.006L176.113 204.972C190.877 193.863 197.256 179.929 197.044 162.262L209.636 162.275C213.458 162.331 215.354 160.556 215.326 156.706C215.295 152.599 215.073 148.475 215.375 144.39C215.779 138.905 213.333 137.279 208.112 137.308C177.929 137.481 147.742 137.6 117.562 137.276C111.782 137.214 105.587 136.075 100.34 133.735C85.7798 127.24 78.9607 114.989 78.3409 99.4407C77.8677 87.551 77.9392 75.6157 78.3273 63.7186C79.0432 41.8097 94.8921 26.4217 116.691 26.3256L248.506 26.0003C257.445 25.9843 257.937 26.5253 257.952 35.3763L257.964 60.0158C257.936 68.178 257.512 68.6142 249.093 68.6204L130.822 68.6598C121.026 68.6623 120.956 68.6574 120.998 78.6963C121.061 93.6185 117.226 94.2592 136.553 94.1138L217.839 93.9265C240.674 93.3646 258.626 111.184 257.984 134.228C257.703 144.281 257.9 154.35 257.948 164.411C257.995 174.15 255.649 183.099 249.241 191.203L249.24 191.202Z" fill="#FA3534"/>
<path d="M146.265 162.124L148.23 151.738C148.536 149.335 148.289 146.861 148.289 143.834H191.17C190.958 157.14 193.573 170.661 187.231 183.014C184.435 188.461 179.518 192.819 174.839 197.834C173.83 198.331 173.546 198.666 173.261 199.001C173.261 199.001 173.284 199.128 172.87 199.069C171.917 199.45 171.377 199.889 170.838 200.329C170.838 200.329 170.883 200.404 170.479 200.34C169.511 200.713 168.947 201.149 168.383 201.586C168.383 201.586 168.419 201.637 168.03 201.571C167.055 201.904 166.469 202.302 165.884 202.701C165.884 202.701 165.879 202.821 165.302 202.736C154.535 203.087 144.344 203.86 134.153 203.9L13.2521 204.011C13.2521 204.011 13.1695 204.096 13.1264 203.745C12.8528 203.008 12.5127 202.81 12.063 202.8C12.063 202.8 11.9385 202.842 12.0395 202.229L12.0198 33.5912C12.01 28.5674 14.0049 26.538 18.9412 26.5626L84.796 26.7795C86.3868 26.793 87.9665 28.3124 89.5512 29.1318C89.5512 29.1318 89.5573 29.1256 89.2382 29.1675C88.7059 29.5668 88.4915 29.9241 88.2783 30.2815C88.2783 30.2815 88.3214 30.3578 87.9826 30.3899C87.2457 30.6376 87.0338 30.9715 87.0079 31.4237C87.0079 31.4237 87.0461 31.5396 86.5717 31.5297C84.7714 33.171 83.4443 34.8234 82.1184 36.4758C82.1184 36.4758 82.1665 36.5202 81.8215 36.5954C81.3138 37.0599 81.1511 37.4493 80.9885 37.8387C80.9885 37.8387 80.9392 37.7647 80.5732 37.9077C79.2055 39.9975 78.2037 41.9432 77.2031 43.8889C77.2031 43.8889 77.2376 43.9135 76.8088 44.0749C74.9506 48.8584 73.1195 53.4004 72.1793 58.1198C70.3865 67.1138 70.5972 67.1002 61.5194 67.1803C59.3396 67.1988 57.1647 67.7213 54.9874 68.0121C54.9874 68.0121 54.7052 68.2536 54.0891 68.4816C53.1945 69.2418 52.6745 69.7742 52.6733 70.3077L52.677 158.739C52.6819 159.938 54.1421 161.132 54.9245 162.329C54.9245 162.329 54.9849 162.235 55.3657 162.65C56.3428 163.194 56.9392 163.433 57.5368 163.434L141.799 163.423C143.29 163.419 144.778 162.58 146.269 162.129L146.265 162.124Z" fill="#08BD50"/>
<path d="M148.856 75.7581C162.19 75.0447 175.265 74.7391 188.34 74.7046C189.332 74.7021 191.047 76.532 191.186 77.6632C191.579 80.8423 191.323 84.1003 191.323 87.7686H148.596C148.596 83.8748 148.596 80.0549 148.856 75.7581Z" fill="#16B556"/>
</svg>
